<svg version="1.1" id="Layer_1" xmlns="http://www.w3.org/2000/svg" xmlns:xlink="http://www.w3.org/1999/xlink" x="0px" y="0px"
	 width="100%" viewBox="0 0 1254 1254" enable-background="new 0 0 1254 1254" xml:space="preserve">
<path fill="#032F89" opacity="1.000000" stroke="none" 
	d="
M693.000000,1255.000000 
	C462.000000,1255.000000 231.500000,1255.000000 1.000000,1255.000000 
	C1.000000,837.000000 1.000000,419.000000 1.000000,1.000000 
	C419.000000,1.000000 837.000000,1.000000 1255.000000,1.000000 
	C1255.000000,419.000000 1255.000000,837.000000 1255.000000,1255.000000 
	C1067.833374,1255.000000 880.666687,1255.000000 693.000000,1255.000000 
M487.051117,1123.852295 
	C497.402924,1123.911621 507.754761,1123.971069 518.825012,1123.714478 
	C519.216064,1122.354248 519.946106,1120.994507 519.948669,1119.633545 
	C520.011597,1085.888550 520.024719,1052.143188 519.905029,1018.398438 
	C519.899841,1016.945740 518.543884,1015.497864 516.905579,1014.175049 
	C506.610382,1014.194641 496.315216,1014.214294 485.174744,1014.538391 
	C484.784088,1015.906799 484.054840,1017.274658 484.052246,1018.643799 
	C483.988861,1052.279663 483.975800,1085.915894 484.092865,1119.551392 
	C484.098022,1121.018921 485.423706,1122.481567 487.051117,1123.852295 
M797.053955,1014.527100 
	C796.701355,1016.085327 796.043701,1017.643005 796.040955,1019.201843 
	C795.982483,1052.467407 795.975586,1085.733154 796.064026,1118.998657 
	C796.068420,1120.636719 797.030396,1122.272095 798.412964,1123.841553 
	C808.845032,1123.841553 819.277161,1123.841553 829.984131,1123.841553 
	C829.984131,1105.921265 829.696716,1088.638428 830.083557,1071.370728 
	C830.348694,1059.535034 835.187378,1049.656738 847.066833,1045.783081 
	C853.431335,1043.707886 860.582520,1044.045044 868.251038,1043.197144 
	C868.251038,1033.997803 868.251038,1023.598938 868.251038,1013.112976 
	C851.742981,1009.383301 840.603333,1014.853882 828.669678,1033.440918 
	C828.669678,1026.497559 828.669678,1020.481750 828.669678,1014.117249 
	C817.988159,1014.117249 807.913391,1014.117249 797.053955,1014.527100 
M966.640747,760.765198 
	C966.713074,760.049744 966.785461,759.334351 967.194946,758.033875 
	C969.468018,752.888000 971.973389,747.830688 973.975403,742.581421 
	C984.792419,714.218750 992.429871,684.892700 998.621582,655.270447 
	C1004.679321,626.288696 1009.372131,597.016724 1014.380554,567.823486 
	C1016.062256,558.021179 1011.546326,548.320679 1003.760376,544.352112 
	C994.906250,539.839233 985.712952,540.502075 978.759338,547.357300 
	C972.745850,553.285706 967.521729,560.526367 963.699463,568.073669 
	C950.297424,594.537170 941.307617,622.776672 932.049377,650.871460 
	C931.601929,652.229187 931.717529,654.286377 932.462036,655.445618 
	C943.409485,672.491150 937.361084,691.434998 924.976685,702.894897 
	C912.705139,714.250427 900.620972,725.808838 888.319214,737.131104 
	C876.922729,747.620178 865.345276,757.912598 853.851990,768.296570 
	C851.046143,770.831665 847.967834,771.918579 845.150940,768.693481 
	C842.495850,765.653625 843.400574,762.605835 846.248779,759.997498 
	C852.132385,754.609131 858.002258,749.205688 863.865234,743.794800 
	C882.428589,726.663025 901.169373,709.717285 919.455505,692.294434 
	C926.730530,685.362793 929.008728,676.301941 925.292542,666.645874 
	C919.801636,652.377930 901.660278,647.729919 889.064148,657.995239 
	C879.356506,665.906738 870.582214,675.018250 861.787598,683.983337 
	C845.294983,700.795776 827.787903,716.272766 807.041260,727.715576 
	C799.409729,731.924927 791.693176,735.980225 784.169250,739.437561 
	C798.268250,722.663940 812.515137,706.011353 826.394409,689.057861 
	C832.070679,682.124268 836.951660,674.539612 843.015198,667.442322 
	C847.920105,668.489563 852.096802,666.817749 856.229614,664.312378 
	C858.096863,663.180481 860.565369,662.194702 862.640503,662.394653 
	C872.772705,663.370483 877.679260,659.671753 878.656372,649.755981 
	C878.946899,646.806580 882.737915,643.631531 885.246277,644.835449 
	C893.927551,649.002502 901.760681,645.528809 909.553955,642.451721 
	C926.924805,635.593079 935.082214,620.410828 942.719910,604.891907 
	C944.057251,602.174683 944.749695,599.317200 942.098938,596.564392 
	C941.448547,595.888916 941.909729,593.815186 942.306030,592.520874 
	C943.514893,588.572876 942.402588,584.799011 938.914185,583.606262 
	C930.231384,580.637817 927.173767,572.216431 921.139465,566.752319 
	C919.374939,565.154541 919.450500,563.518127 921.526489,561.803162 
	C927.509094,556.861267 927.520020,556.210938 923.280090,550.123352 
	C922.846252,549.500549 922.617432,548.734863 922.056030,547.522949 
	C923.904785,546.841553 925.755493,545.441589 926.800659,545.895691 
	C931.938232,548.127747 933.945923,544.181030 936.405579,541.360779 
	C947.004517,546.354187 951.385864,545.202026 958.570679,535.882141 
	C959.127136,535.160339 960.331604,534.618469 961.270386,534.559631 
	C973.339905,533.803589 978.885010,523.504639 973.160950,512.961792 
	C976.117371,505.937134 978.595581,499.350220 986.559937,495.728821 
	C991.002747,493.708679 994.984558,487.930756 993.155945,481.428894 
	C992.188843,477.990112 990.702637,474.669952 989.173645,471.426910 
	C988.273621,469.518066 987.207397,466.940613 985.561462,466.269867 
	C980.547791,464.226715 978.595642,460.963715 976.987732,455.711761 
	C975.027954,449.310242 969.520508,444.597565 962.386658,443.473755 
	C957.265442,442.666962 951.997742,442.790405 946.770081,442.497437 
	C947.190430,429.121796 927.984619,416.224640 915.450073,425.044769 
	C913.930359,426.114136 910.496948,425.917206 908.745483,424.916138 
	C904.439819,422.455292 900.521790,422.325653 896.640625,425.171844 
	C893.527649,427.454773 891.315247,426.883759 889.016968,423.109436 
	C890.703857,421.668823 892.624084,420.322510 894.185242,418.642548 
	C899.612305,412.802490 899.514465,412.337952 892.293579,408.200867 
	C895.056274,406.670654 897.463257,405.340027 899.867554,404.004333 
	C900.852478,403.457092 902.185608,403.140961 902.755859,402.306549 
	C906.575684,396.717346 904.950195,390.857269 903.050110,385.184418 
	C901.620789,380.917358 897.792725,380.242218 893.791565,379.760712 
	C886.576538,378.892487 879.817017,377.283844 874.713135,371.080872 
	C870.263123,365.672668 865.319336,364.829132 859.735352,369.143555 
	C854.624939,373.092072 851.561584,370.408142 847.882080,367.830048 
	C847.346252,367.454559 847.023926,366.639038 846.463013,366.456268 
	C842.643799,365.212006 838.736145,363.041107 834.957703,363.225983 
	C831.567993,363.391846 828.307068,366.189453 824.836243,367.901520 
	C822.433655,362.994141 821.006958,357.102844 817.349792,353.436218 
	C813.590332,349.666901 807.653687,348.069092 802.472778,345.420319 
	C806.121826,341.733032 803.645020,339.531158 800.032532,337.790253 
	C796.588806,336.130676 793.081177,334.603729 788.598633,332.561554 
	C791.136719,331.697998 793.504944,329.962585 795.132996,330.494110 
	C803.614319,333.262787 811.987122,332.618958 820.367249,330.584869 
	C826.167969,329.176910 831.986328,327.673492 837.549133,325.560638 
	C839.139404,324.956604 840.941650,321.906769 840.686035,320.287964 
	C840.428162,318.654694 837.857483,317.212219 836.054993,316.074280 
	C835.214355,315.543579 833.793091,315.964996 832.638733,315.893799 
	C822.559143,315.272247 812.396423,315.233612 802.425842,313.831604 
	C793.130676,312.524658 784.450989,312.887207 775.472412,315.952637 
	C769.612976,317.953156 763.047302,317.922485 756.780090,318.647064 
	C755.948181,318.743286 755.007141,317.932892 754.122375,317.529724 
	C750.051270,315.674469 741.343323,319.239502 740.599731,323.546295 
	C740.295959,325.306061 741.603455,328.628662 742.972351,329.148560 
	C746.877319,330.631622 751.185547,331.065277 755.345581,331.856659 
	C756.583862,332.092163 757.856750,332.145599 759.113770,332.282471 
	C755.840637,334.333710 751.972290,337.202271 749.579163,336.272766 
	C741.648499,333.192505 737.404358,337.732819 732.704590,342.350037 
	C731.614014,343.421509 729.956177,344.738251 728.662537,344.636169 
	C723.417725,344.222168 720.713135,346.917511 718.758972,351.291260 
	C717.184937,354.814026 714.406616,356.302063 710.331238,356.159515 
	C707.007019,356.043213 703.494324,356.497437 700.337952,357.531311 
	C695.617188,359.077515 691.185303,361.483490 686.532410,363.267822 
	C684.094299,364.202820 681.278748,365.495728 678.926208,365.057373 
	C672.158142,363.796112 665.413757,362.102234 658.900757,359.874664 
	C653.589478,358.058105 648.794556,354.705902 643.465515,352.973236 
	C636.000854,350.546173 628.252930,348.990509 622.305237,347.486633 
	C620.341919,343.066528 619.780945,338.410370 617.386780,337.097595 
	C611.866943,334.070984 605.572571,331.638458 599.370361,330.942139 
	C594.676758,330.415192 589.682129,333.180573 584.746460,334.060333 
	C576.870239,335.464294 568.962524,336.822388 561.010376,337.632050 
	C553.695496,338.376831 546.299072,338.685059 538.948792,338.564240 
	C535.362122,338.505249 533.395630,335.675842 533.702942,331.946930 
	C534.005676,328.273895 534.769348,324.635376 534.998291,320.960999 
	C535.144958,318.607605 534.226440,316.142700 534.591675,313.856628 
	C535.612061,307.471039 533.843872,303.807220 528.116211,300.996429 
	C521.477051,297.738434 515.122009,293.803955 508.271484,291.109009 
	C503.845886,289.367981 498.742859,288.651276 493.960815,288.718323 
	C489.539673,288.780304 485.149109,291.285004 480.732178,291.326019 
	C470.566376,291.420471 463.177856,286.665161 465.265594,273.682220 
	C466.811951,264.066071 465.875732,260.835297 457.271912,256.205322 
	C454.718262,254.831161 451.169098,253.572311 448.624603,254.267670 
	C442.877502,255.838272 438.939697,264.009918 439.848907,270.054901 
	C440.151733,272.068024 440.156036,274.179474 439.937744,276.207336 
	C439.341034,281.751068 443.157623,285.650604 448.672272,284.450623 
	C451.563171,283.821533 454.238770,282.203186 457.011993,281.031433 
	C460.570557,290.605347 460.570557,290.605347 458.641724,291.266998 
	C455.382874,289.433258 453.267334,287.359406 450.987701,287.159821 
	C447.234314,286.831268 445.472168,289.504089 445.706665,292.319550 
	C442.661530,293.494232 440.053223,294.590820 437.384521,295.512512 
	C430.031525,298.052002 422.804626,301.454376 415.230927,302.679382 
	C410.307190,303.475769 406.501801,304.746490 402.960999,308.072784 
	C400.966949,309.946045 398.437317,311.421295 395.905670,312.510406 
	C392.004608,314.188568 388.683533,315.901337 387.450623,320.598785 
	C386.770355,323.190674 384.879791,325.704468 382.942963,327.670288 
	C380.113403,330.542175 379.934723,333.289185 381.744568,336.627197 
	C387.311768,346.895203 392.555542,357.349915 398.459290,367.418823 
	C401.065582,371.863892 401.305969,375.615875 398.645905,379.821808 
	C398.125458,380.644745 397.621826,381.706299 397.672638,382.626770 
	C398.100433,390.379028 394.429199,394.397064 387.510468,398.105927 
	C383.438141,400.288971 379.707825,402.124207 375.273376,402.749207 
	C370.516449,403.419678 367.512390,399.947083 368.938873,395.558655 
	C370.433197,390.961578 368.378967,386.011414 363.988068,383.398285 
	C361.923950,382.169830 358.244965,380.781403 358.249390,379.475464 
	C358.264191,375.099487 355.484009,373.698975 352.879730,372.692352 
	C354.280426,370.042786 355.284698,367.706238 356.676575,365.629486 
	C358.154877,363.423706 360.054596,361.505402 361.673615,359.387634 
	C364.046936,356.283234 365.732391,352.194397 368.798798,350.185608 
	C373.437195,347.147034 375.010223,342.812378 377.091522,338.268311 
	C379.585266,332.823822 378.924469,328.449768 374.643860,324.437317 
	C374.315002,324.129028 373.937042,323.424377 374.073181,323.135468 
	C376.414154,318.167755 372.735474,316.588501 369.635986,315.355865 
	C370.540436,313.894714 371.940887,311.873657 371.825378,311.782959 
	C369.841217,310.224731 367.669983,308.904755 365.475677,307.491211 
	C364.224518,302.975250 362.680969,298.124451 361.560669,293.177795 
	C360.165619,287.017822 360.452026,287.037201 366.982361,286.588013 
	C374.890961,286.044006 382.539612,284.114838 388.560944,278.709839 
	C390.199219,277.239197 390.158203,273.897827 390.887939,271.415070 
	C388.301941,271.168854 384.925995,269.755646 383.266815,270.878693 
	C376.118134,275.717590 367.971252,276.998688 359.975098,279.211395 
	C356.325958,280.221191 352.556915,282.976044 350.211121,286.000946 
	C346.790680,290.411560 344.896362,295.975433 341.757782,300.648926 
	C340.389679,302.686157 337.564026,303.756561 335.373871,305.226654 
	C332.752533,306.986206 329.650543,308.284576 327.567291,310.533508 
	C324.092529,314.284607 321.484924,318.827484 318.110168,322.685272 
	C312.418671,329.191498 310.239563,337.140564 308.195038,345.172882 
	C306.035553,353.656555 305.166260,362.682587 301.664276,370.550812 
	C298.115784,378.523682 291.837433,385.247406 287.193817,392.788635 
	C285.876099,394.928619 284.963104,398.577179 285.924927,400.506897 
	C286.884430,402.431885 290.430969,404.044495 292.838318,404.037720 
	C296.297119,404.028015 299.751434,402.427368 303.220520,401.502441 
	C305.117035,407.701660 305.958374,408.094543 312.177002,405.293121 
	C312.177002,407.034576 311.985291,408.702332 312.209442,410.312195 
	C313.315765,418.257538 314.460510,426.309082 322.289795,430.868042 
	C326.865387,433.532410 328.109314,438.788055 325.000000,443.239288 
	C320.779968,449.280640 318.123657,455.751892 320.019409,463.376648 
	C320.319183,464.582306 320.134155,466.024994 319.796021,467.254364 
	C317.016724,477.358307 320.089142,481.857391 330.711121,482.912262 
	C330.846954,483.513062 331.107635,484.148407 331.117828,484.787720 
	C331.321808,497.607178 338.376068,502.566010 350.324585,498.394775 
	C351.762482,497.892792 353.466248,498.141144 355.047943,498.065216 
	C357.307800,497.956696 359.571350,497.750702 361.828552,497.800781 
	C365.474426,497.881744 369.116577,498.134186 372.759979,498.319916 
	C376.136444,498.492004 380.585602,500.125061 382.686493,498.573975 
	C388.856812,494.018402 394.806671,493.337311 401.906952,495.468994 
	C404.548645,496.262115 406.222687,496.865479 407.364227,499.545654 
	C408.903290,503.159210 411.109283,506.488678 412.960236,510.708099 
	C412.401764,512.234253 411.898956,513.783508 411.276520,515.283081 
	C400.233093,541.888611 399.298767,569.269592 405.544189,597.017456 
	C410.343842,618.341675 418.019012,638.741333 429.821777,657.153931 
	C440.760864,674.219177 452.448059,690.867432 464.765594,706.964966 
	C473.270844,718.080383 483.417084,727.939209 492.799011,738.387451 
	C493.316895,738.964172 493.550415,739.796387 493.209320,740.288696 
	C483.498016,734.584656 473.723328,728.985291 464.088287,723.155151 
	C442.515228,710.101257 424.989258,692.340332 407.623779,674.390564 
	C402.654877,669.254517 397.628479,664.138184 392.259857,659.433411 
	C384.678558,652.789551 375.592804,650.596619 366.228027,654.297974 
	C350.597107,660.475891 346.907379,679.975769 359.153687,692.198792 
	C370.202209,703.226318 382.080688,713.419556 393.528870,724.049927 
	C406.808746,736.381348 420.019836,748.786804 433.257690,761.163452 
	C435.799316,763.539673 435.842285,766.375549 433.613495,768.648743 
	C431.418335,770.887756 428.622284,771.867065 425.749481,769.064575 
	C422.180969,765.583435 418.448975,762.269592 414.780518,758.891235 
	C393.877380,739.641479 372.964233,720.402588 352.070557,701.142639 
	C339.686676,689.727234 337.216919,670.443420 345.991486,655.881653 
	C346.911133,654.355347 347.084625,651.727905 346.466278,650.024475 
	C337.683838,625.830322 329.097473,601.551636 319.598389,577.637085 
	C315.210083,566.589233 309.951385,555.613159 300.512482,547.592529 
	C292.655762,540.916321 283.169189,539.992554 274.075287,544.769470 
	C267.116486,548.424805 262.626068,557.670105 263.730621,566.993958 
	C265.001068,577.717896 265.974243,588.539246 268.222382,599.073730 
	C275.396637,632.691528 282.569458,666.327393 290.798767,699.695862 
	C295.871704,720.265625 302.581055,740.464539 312.084045,760.213379 
	C312.392609,760.490784 312.701172,760.768188 313.013794,760.986938 
	C313.013794,760.986938 312.955170,760.991943 312.970001,761.761292 
	C318.837830,772.869019 323.870056,784.526855 330.746338,794.970581 
	C345.339203,817.134216 363.762543,836.134460 385.360962,851.387756 
	C402.800232,863.703796 421.545227,874.230469 440.058716,884.950378 
	C462.114685,897.721497 480.526642,913.483643 488.424194,938.931458 
	C499.385437,938.931458 510.184570,938.931458 521.867554,939.278687 
	C552.108337,939.302612 582.349121,939.329834 612.589905,939.332947 
	C613.399719,939.333008 614.209473,939.070801 615.951904,939.002258 
	C631.902832,939.053650 647.853821,939.104980 664.736755,939.441833 
	C681.925415,939.397522 699.114258,939.381470 716.302734,939.300049 
	C730.127380,939.234497 743.951599,939.089722 758.746521,939.007080 
	C768.049194,939.049622 777.354004,938.992859 786.653381,939.190369 
	C789.754944,939.256226 791.116577,938.335754 792.154114,935.177185 
	C797.080017,920.180542 805.803711,907.376099 818.634766,898.418396 
	C832.396057,888.811401 847.095276,880.490356 861.707642,872.174744 
	C879.570557,862.009094 896.610413,850.621460 911.557007,836.611877 
	C922.608948,826.252808 932.713013,814.751831 942.293762,802.989380 
	C952.527527,790.425293 960.717163,776.434631 965.945923,760.957947 
	C965.945923,760.957947 965.949341,761.021973 966.640747,760.765198 
M260.844208,1126.668579 
	C291.963074,1131.092529 319.508698,1124.589478 341.383148,1100.900757 
	C333.580353,1093.063965 326.102936,1085.553833 318.630829,1078.049072 
	C296.137024,1102.816406 259.665009,1098.161377 243.995697,1081.717163 
	C225.544373,1062.353394 225.097794,1029.700806 243.440079,1009.428223 
	C251.192734,1000.859802 261.232208,996.105469 272.741516,994.870544 
	C290.795502,992.933533 306.030975,998.877014 317.309784,1010.931885 
	C325.446655,1003.616028 333.346191,996.513489 341.368317,989.300781 
	C339.300903,986.964233 337.929443,985.085205 336.241272,983.555786 
	C311.863525,961.471130 283.180969,956.542603 252.616562,965.395569 
	C216.498108,975.857361 196.622604,1001.411865 193.397949,1038.636963 
	C189.732376,1080.951904 215.272369,1118.769897 260.844208,1126.668579 
M653.983765,992.500000 
	C653.983765,982.740662 653.983765,972.981384 653.983765,963.326050 
	C642.873779,963.326050 632.477173,963.326050 621.790283,963.326050 
	C621.790283,974.274902 621.790283,984.757690 621.790283,995.240417 
	C621.790283,1005.569275 621.790283,1015.898071 621.790283,1026.950928 
	C602.584961,1004.744202 570.163269,1009.468201 554.445435,1023.170288 
	C529.381165,1045.020264 531.122559,1086.318115 546.211670,1106.745850 
	C561.937683,1128.035767 592.631897,1133.810669 613.584717,1118.705933 
	C616.694824,1116.463867 619.321960,1113.551880 622.390503,1110.750977 
	C622.617493,1115.266724 622.822632,1119.348022 623.038208,1123.636719 
	C633.466125,1123.636719 643.523132,1123.636719 653.974976,1123.636719 
	C653.974976,1080.047363 653.974976,1036.773682 653.983765,992.500000 
M738.260437,1117.764404 
	C740.043762,1115.699951 741.827087,1113.635498 743.610352,1111.571167 
	C744.011536,1111.803955 744.412720,1112.036743 744.813904,1112.269531 
	C744.813904,1115.991821 744.813904,1119.714111 744.813904,1123.587646 
	C755.182983,1123.587646 765.059143,1123.587646 775.163452,1123.587646 
	C775.163452,1100.367920 775.848816,1077.524414 774.968994,1054.741333 
	C774.104309,1032.350342 763.538147,1019.216187 744.171570,1013.981201 
	C730.195190,1010.203247 716.158936,1010.634338 702.351990,1014.905518 
	C692.887146,1017.833313 684.462952,1022.671570 677.108093,1030.272949 
	C682.293579,1036.966553 687.327820,1043.464966 692.448853,1050.075195 
	C694.886475,1048.433472 696.957581,1047.069092 698.997498,1045.659424 
	C707.589355,1039.721924 717.061951,1037.613281 727.390442,1038.935791 
	C738.287720,1040.331299 744.762817,1049.337158 742.226440,1060.060059 
	C739.963867,1059.832031 737.663879,1059.592773 735.362244,1059.369873 
	C720.870544,1057.965942 706.516296,1057.832886 692.539001,1062.966064 
	C679.619263,1067.710938 672.450439,1077.027344 671.381775,1090.468018 
	C670.385864,1102.994629 674.538452,1113.575439 685.537842,1120.913818 
	C697.834045,1129.117432 723.112976,1130.389771 738.260437,1117.764404 
M424.377350,1117.882812 
	C426.628174,1115.549561 428.878967,1113.216309 432.130188,1109.846069 
	C432.130188,1115.345459 432.130188,1119.513062 432.130188,1123.631836 
	C442.835846,1123.631836 452.864807,1123.631836 462.749451,1123.631836 
	C462.749451,1087.151489 462.749451,1051.041382 462.749451,1014.585571 
	C452.018066,1014.585571 441.524933,1014.585571 430.478943,1014.585571 
	C430.478943,1016.666199 430.488159,1018.631775 430.477539,1020.597229 
	C430.373871,1039.751831 430.555542,1058.914062 430.047577,1078.057861 
	C429.764069,1088.743652 420.839600,1097.419800 410.707245,1098.167969 
	C395.734772,1099.273560 387.010986,1091.425171 386.872864,1076.278320 
	C386.701202,1057.450684 386.830780,1038.620239 386.830292,1019.791077 
	C386.830261,1018.033447 386.830322,1016.275879 386.830322,1014.511597 
	C375.596802,1014.511597 365.103394,1014.511597 354.157318,1014.511597 
	C354.157318,1016.613098 354.157318,1018.408386 354.157318,1020.203674 
	C354.157318,1040.199341 354.103180,1060.195190 354.201660,1080.190308 
	C354.222107,1084.334839 354.517700,1088.524170 355.187164,1092.610840 
	C357.645264,1107.616455 364.976440,1119.174561 379.913452,1124.224976 
	C395.355255,1129.445923 410.358154,1129.092896 424.377350,1117.882812 
M969.008301,1068.541504 
	C969.246033,1093.033447 979.190063,1111.835938 1002.120728,1121.901855 
	C1025.593750,1132.205811 1053.604614,1126.714111 1071.463135,1109.053467 
	C1066.069458,1102.762207 1060.649902,1096.440918 1055.245361,1090.136963 
	C1041.365479,1100.899902 1027.094482,1103.164795 1014.445312,1096.699341 
	C1007.040283,1092.914429 1002.861572,1086.821045 1001.446350,1078.083008 
	C1026.524780,1078.083008 1050.953613,1078.083008 1076.209839,1078.083008 
	C1076.209839,1073.416504 1076.254639,1069.130127 1076.202637,1064.844727 
	C1075.765015,1028.734131 1047.301392,1005.651184 1011.909424,1012.689514 
	C987.265564,1017.590393 969.905945,1039.802246 969.008301,1068.541504 
M895.385925,1041.974731 
	C898.569458,1041.334717 899.251526,1042.781128 899.223022,1045.781494 
	C899.080750,1060.770142 899.025818,1075.762573 899.203674,1090.750488 
	C899.367188,1104.532227 904.263916,1115.967896 917.397949,1122.076904 
	C931.673645,1128.716797 946.170410,1126.999878 960.657410,1122.136963 
	C959.970825,1113.253784 959.308044,1104.679077 958.630615,1095.914917 
	C954.942627,1096.611206 951.568909,1097.383057 948.154358,1097.866943 
	C938.819885,1099.189575 932.154724,1094.921387 931.687317,1085.685547 
	C930.958801,1071.290771 931.494568,1056.832031 931.494568,1041.972656 
	C940.806824,1041.972656 949.880371,1041.972656 959.129639,1041.972656 
	C959.129639,1032.506592 959.129639,1023.474609 959.129639,1014.040100 
	C949.696106,1014.040100 940.648254,1014.040100 931.132141,1014.040100 
	C931.132141,1003.431091 931.132141,993.217773 931.132141,982.923462 
	C920.274658,982.923462 909.897461,982.923462 898.969177,982.923462 
	C898.969177,993.541260 898.969177,1003.766724 898.969177,1014.601196 
	C892.533936,1014.601196 886.652649,1014.601196 880.767822,1014.601196 
	C880.767822,1024.004028 880.767822,1032.775757 880.767822,1041.975708 
	C885.501099,1041.975708 889.957581,1041.975708 895.385925,1041.974731 
M718.225647,173.003052 
	C715.966980,164.228561 713.708313,155.454071 711.382874,146.420059 
	C718.804321,140.766678 726.325623,135.037201 733.846985,129.307724 
	C733.620544,128.849365 733.394165,128.391006 733.167725,127.932648 
	C731.575012,127.853241 729.982788,127.719467 728.389404,127.703926 
	C721.764160,127.639297 715.129761,127.779144 708.519775,127.437363 
	C707.054626,127.361610 704.878296,125.925621 704.393494,124.612350 
	C702.272949,118.868378 700.686951,112.928780 698.837646,107.082092 
	C698.081421,104.691338 697.149658,102.356133 695.852722,98.762665 
	C694.754333,101.077934 694.197998,102.019478 693.845154,103.031929 
	C691.608887,109.448021 689.072205,115.788223 687.335754,122.339302 
	C686.215454,126.565994 684.128723,127.642838 680.064697,127.431862 
	C673.754944,127.104279 667.414917,127.298012 661.089355,127.386665 
	C659.820129,127.404449 658.558167,127.940529 655.964355,128.549576 
	C663.640686,134.265045 670.090881,139.143539 676.634216,143.893692 
	C678.635437,145.346527 679.364807,146.620682 678.422729,149.263489 
	C675.973145,156.134796 673.959534,163.162445 671.820374,170.142563 
	C671.478882,171.256866 671.387634,172.447861 671.180664,173.603409 
	C671.566528,173.882477 671.952454,174.161545 672.338318,174.440613 
	C679.919617,169.010544 687.500854,163.580490 695.185120,158.076645 
	C700.755493,162.354797 706.064697,166.588593 711.559265,170.566238 
	C713.443787,171.930527 715.792358,172.653915 718.225647,173.003052 
M562.885986,111.180870 
	C561.572571,115.469788 559.989075,119.699966 559.039246,124.067940 
	C558.388306,127.061447 556.740479,127.651917 554.160339,127.690628 
	C547.677063,127.787926 541.193359,127.946350 534.714661,128.201233 
	C533.155029,128.262589 531.613831,128.794113 528.574646,129.412506 
	C536.533264,135.092239 543.025330,139.923462 549.747070,144.410614 
	C551.980286,145.901459 552.414429,147.217773 551.660217,149.665405 
	C549.460693,156.803299 547.456665,164.002487 545.469360,171.203384 
	C545.226685,172.082672 545.552429,173.118851 545.687439,175.206390 
	C553.850525,169.024979 561.087219,163.545120 568.403809,158.004730 
	C575.911926,163.181519 583.416321,168.355759 590.920776,173.529999 
	C591.388916,173.134415 591.857056,172.738815 592.325256,172.343216 
	C590.900635,167.668167 589.439941,163.003738 588.058228,158.316025 
	C584.208313,145.255020 584.252014,145.291992 595.243408,136.993668 
	C599.011658,134.148636 602.583374,131.043228 606.244873,128.056763 
	C606.071594,127.690742 605.898254,127.324707 605.724976,126.958679 
	C596.388489,126.958679 587.052002,126.958679 577.581970,126.958679 
	C574.367737,117.716484 571.240845,108.725388 568.113953,99.734291 
	C567.638855,99.735641 567.163696,99.736984 566.688538,99.738335 
	C565.523315,103.305908 564.358032,106.873482 562.885986,111.180870 
M269.394348,276.165161 
	C264.399902,276.224854 259.401215,276.181213 254.412796,276.386963 
	C251.837753,276.493134 250.641632,275.656067 249.842255,273.063568 
	C247.795227,266.424744 245.342056,259.910126 242.999359,253.364395 
	C242.536636,252.071472 241.841583,250.861679 241.253677,249.613556 
	C240.821808,249.625107 240.389954,249.636673 239.958084,249.648224 
	C237.144623,258.697205 234.331146,267.746185 231.208405,277.789917 
	C221.960831,277.789917 212.698029,277.789917 203.435211,277.789917 
	C203.313492,278.337006 203.191757,278.884094 203.070038,279.431183 
	C207.546890,282.725677 212.006348,286.044098 216.504227,289.309631 
	C225.755325,296.026093 225.722015,296.002075 222.524185,306.819702 
	C220.929260,312.214935 219.519577,317.664917 218.026108,323.090149 
	C218.437637,323.349487 218.849152,323.608826 219.260681,323.868164 
	C220.484833,323.211731 221.821533,322.703491 222.913971,321.873688 
	C228.070953,317.956451 233.254745,314.063995 238.234421,309.928436 
	C240.622559,307.945129 242.227249,307.514191 245.017303,309.665680 
	C251.323303,314.528351 258.064789,318.826294 264.629150,323.353943 
	C265.085327,323.044952 265.541534,322.735931 265.997711,322.426941 
	C263.137299,313.411530 260.276917,304.396118 257.423767,295.403564 
	C264.988617,289.444550 272.310638,283.676819 279.632629,277.909088 
	C279.429596,277.327789 279.226532,276.746460 279.023468,276.165161 
	C276.132294,276.165161 273.241150,276.165161 269.394348,276.165161 
M908.574341,237.913879 
	C906.691223,243.142075 904.808105,248.370270 902.924988,253.598465 
	C903.429688,253.856857 903.934326,254.115250 904.439026,254.373642 
	C912.110168,249.570892 919.781311,244.768143 927.533813,239.914429 
	C934.728210,245.790558 941.815552,251.579208 948.902893,257.367859 
	C949.349060,257.090485 949.795227,256.813110 950.241455,256.535706 
	C949.234497,251.787781 948.330200,247.015259 947.200867,242.296616 
	C944.087708,229.289261 944.044922,229.289474 955.076111,222.224182 
	C957.872620,220.433090 960.743286,218.757248 963.528809,216.949753 
	C965.075439,215.946121 966.516663,214.779984 968.005432,213.687134 
	C967.872681,213.219086 967.739929,212.751038 967.607178,212.283005 
	C958.324158,211.490677 949.041199,210.698349 939.754272,209.905685 
	C937.151245,200.380005 934.624695,191.134491 932.098206,181.888962 
	C931.608826,181.916626 931.119385,181.944290 930.630005,181.971939 
	C927.434937,189.927200 924.335510,197.923645 920.942993,205.793777 
	C920.427307,206.990204 918.540405,208.372025 917.307190,208.353760 
	C910.507690,208.252975 903.715088,207.727463 896.918091,207.387497 
	C895.283630,207.305756 893.641663,207.375336 892.003113,207.375336 
	C891.840332,207.871246 891.677551,208.367172 891.514832,208.863083 
	C898.589111,214.954575 905.663391,221.046066 912.707886,227.111893 
	C911.342712,230.688858 910.102539,233.938263 908.574341,237.913879 
M326.925140,250.408249 
	C330.987366,247.243790 335.255676,244.305145 339.047729,240.844589 
	C342.173737,237.991806 344.413605,237.792267 347.902954,240.553802 
	C353.657806,245.108246 359.988678,248.934845 366.076782,253.068207 
	C366.469849,252.821289 366.862915,252.574371 367.255981,252.327454 
	C366.920044,250.676498 366.715393,248.985352 366.224487,247.381866 
	C364.474731,241.666367 362.905029,235.871567 360.722015,230.321213 
	C359.210846,226.479034 360.181427,224.215622 363.394989,222.046234 
	C366.966827,219.634949 370.318573,216.887314 373.684174,214.184082 
	C376.258057,212.116760 378.704407,209.890640 381.207458,207.735138 
	C381.006500,207.368942 380.805542,207.002731 380.604584,206.636520 
	C371.400146,206.636520 362.195709,206.636520 352.740265,206.636520 
	C349.548889,197.764633 346.321198,188.791779 343.093506,179.818924 
	C342.658539,179.830490 342.223602,179.842056 341.788635,179.853607 
	C341.175323,181.474411 340.471130,183.067398 339.964691,184.720917 
	C337.970551,191.231522 335.874542,197.718597 334.165192,204.304932 
	C333.492157,206.898193 332.424316,207.753860 329.784302,207.763351 
	C322.966736,207.787857 316.148193,208.082932 309.335114,208.383972 
	C307.898987,208.447403 306.484344,208.998215 303.655182,209.646133 
	C306.149597,211.507095 307.397919,212.490875 308.698669,213.399689 
	C314.136322,217.198853 319.694885,220.838303 324.953522,224.869690 
	C326.080933,225.734009 326.896118,228.162354 326.568665,229.571228 
	C324.990204,236.362991 322.940826,243.044205 321.136719,249.785568 
	C320.796906,251.055389 320.812286,252.420288 320.497986,255.216232 
	C323.301117,253.155899 324.845062,252.021072 326.925140,250.408249 
M447.153839,198.626328 
	C451.414673,195.251877 455.675507,191.877441 459.853485,188.568588 
	C467.661072,193.811600 475.039307,198.766281 482.417511,203.720963 
	C482.968994,203.461304 483.520447,203.201645 484.071899,202.942001 
	C481.168762,194.111816 478.265594,185.281631 475.433258,176.666855 
	C483.014771,170.569122 490.211060,164.781219 498.002319,158.514771 
	C496.122223,157.675079 495.684570,157.309113 495.248627,157.311127 
	C490.587219,157.332672 485.913361,157.215347 481.267303,157.514648 
	C469.241730,158.289383 469.265991,158.358475 465.127563,147.034576 
	C463.122192,141.547333 461.028687,136.092300 458.465210,129.264740 
	C457.286224,132.032303 456.611176,133.293945 456.200134,134.636398 
	C454.157410,141.308136 451.914124,147.937195 450.309021,154.715683 
	C449.587372,157.763153 448.556152,158.779297 445.430817,158.780258 
	C438.782257,158.782303 432.131409,159.206619 425.487183,159.563232 
	C423.983002,159.643967 422.501892,160.154617 419.630402,160.756668 
	C427.317657,166.124847 433.663452,170.841934 440.319336,175.070953 
	C443.192169,176.896301 443.542999,178.783844 442.669922,181.666779 
	C441.182922,186.577133 439.806854,191.524384 438.527283,196.492966 
	C437.825348,199.218552 437.416107,202.019516 436.874878,204.786484 
	C437.309998,205.057114 437.745148,205.327744 438.180298,205.598389 
	C440.971222,203.402817 443.762177,201.207260 447.153839,198.626328 
M1017.511658,269.824310 
	C1016.798950,271.680847 1015.788330,273.482391 1015.433472,275.404968 
	C1014.606995,279.882141 1012.122314,281.162079 1007.732178,280.782867 
	C1001.618896,280.254913 995.453003,280.279449 989.308167,280.222687 
	C988.157654,280.212036 987.000427,280.930237 985.846252,281.312103 
	C986.567932,282.280792 987.133118,283.438141 988.036560,284.187714 
	C994.264343,289.354828 1000.562744,294.436768 1006.726257,299.454773 
	C1003.662842,308.531433 1000.735535,317.204651 997.364746,327.192108 
	C999.678955,326.169556 1000.703613,325.882050 1001.543518,325.319031 
	C1007.181641,321.539948 1012.833740,317.777374 1018.368103,313.849854 
	C1020.867004,312.076477 1022.636719,312.004822 1025.180054,314.176880 
	C1031.033936,319.175903 1037.291138,323.702698 1044.474976,329.265411 
	C1044.276855,326.882538 1044.318726,325.864777 1044.092651,324.910492 
	C1042.375977,317.664917 1040.490723,310.456146 1038.961914,303.172089 
	C1038.688477,301.869598 1039.373291,299.687439 1040.383911,298.909821 
	C1045.109375,295.273895 1050.138794,292.036407 1054.985107,288.552826 
	C1057.005493,287.100555 1058.840332,285.390289 1060.759521,283.797333 
	C1060.609131,283.373657 1060.458740,282.949982 1060.308228,282.526306 
	C1057.240601,282.359070 1054.172729,282.195282 1051.105347,282.023865 
	C1045.146973,281.690918 1037.473633,283.476654 1033.704712,280.431519 
	C1029.800415,277.277100 1029.697632,269.432251 1027.901611,263.648407 
	C1026.873657,260.337860 1025.784912,257.046143 1024.723633,253.745956 
	C1024.131348,253.749847 1023.539124,253.753738 1022.946838,253.757614 
	C1021.236023,258.871124 1019.525208,263.984619 1017.511658,269.824310 
M817.158691,138.639679 
	C814.881409,144.157288 812.751587,149.744537 810.206421,155.135651 
	C809.676697,156.257553 807.585693,157.319519 806.254456,157.272415 
	C799.276611,157.025452 792.313354,156.388031 785.341064,155.949020 
	C784.015320,155.865570 782.671875,156.064468 781.336609,156.133102 
	C781.021606,156.696426 780.706543,157.259750 780.391541,157.823090 
	C781.707581,158.761993 783.102478,159.608810 784.325623,160.656174 
	C789.121338,164.762802 793.789429,169.021744 798.656677,173.040253 
	C800.982117,174.960159 801.786011,176.633102 800.377075,179.690155 
	C797.599548,185.717010 795.312073,191.972305 792.906067,198.165802 
	C792.367249,199.552795 792.174744,201.074310 791.822754,202.533890 
	C792.190308,202.788086 792.557861,203.042282 792.925415,203.296478 
	C800.724121,198.436859 808.522827,193.577255 816.429443,188.650406 
	C823.572083,194.763245 830.505920,200.697464 837.439819,206.631699 
	C837.916138,206.320465 838.392456,206.009232 838.868774,205.698013 
	C836.980347,196.661850 835.091919,187.625687 833.179565,178.474976 
	C841.183472,173.415863 849.013916,168.466385 858.061218,162.747772 
	C855.447388,162.121277 854.562378,161.798187 853.654419,161.709122 
	C846.537354,161.011047 839.424866,160.216141 832.291199,159.761169 
	C829.474304,159.581512 828.416443,158.620438 827.835754,155.802734 
	C826.139465,147.571106 824.009644,139.428772 822.049683,131.251450 
	C821.681335,131.191589 821.312988,131.131729 820.944641,131.071854 
	C819.780884,133.363007 818.617126,135.654144 817.158691,138.639679 
M509.791229,962.333130 
	C508.184753,961.941101 506.598450,961.386963 504.968414,961.184265 
	C496.630798,960.146729 489.514465,962.814453 485.302521,970.048950 
	C481.528412,976.531433 481.379425,983.728455 485.967285,990.246216 
	C490.952637,997.328674 498.719543,999.948914 507.520172,997.805420 
	C514.327087,996.147522 520.117188,989.720276 521.060974,982.774475 
	C522.244934,974.061890 518.644714,967.255920 509.791229,962.333130 
M674.229675,307.297028 
	C671.002136,301.361176 665.581421,299.401001 659.638794,301.755829 
	C658.460144,302.222870 656.653992,302.185425 655.560364,301.595734 
	C651.406128,299.355927 648.516418,301.897125 646.653503,304.577515 
	C645.319275,306.497284 644.963806,309.988953 645.723022,312.260864 
	C646.833984,315.585419 650.097839,316.196198 653.633545,315.678986 
	C655.526855,315.402039 657.823669,315.685394 659.505920,316.553741 
	C666.021545,319.916748 673.947693,315.504395 674.229675,307.297028 
M711.458252,314.850891 
	C711.272095,312.263184 712.046570,308.685089 710.657349,307.337616 
	C708.908447,305.641174 705.408264,305.678284 702.629700,305.144653 
	C701.168884,304.864075 699.534851,304.590698 698.155884,304.965302 
	C695.317627,305.736359 692.080688,306.364685 690.028137,308.195557 
	C688.837646,309.257538 688.662415,313.648254 689.737915,314.589233 
	C691.776062,316.372406 695.002075,316.908905 697.818115,317.642914 
	C699.130432,317.984955 700.843567,317.097961 702.018677,317.600830 
	C705.694275,319.173798 708.426636,317.938599 711.458252,314.850891 
M687.713806,342.827240 
	C690.735901,343.605988 693.727112,344.560669 696.791382,345.099640 
	C698.726135,345.439972 700.835571,345.475037 702.749023,345.078888 
	C705.274780,344.555969 708.533447,344.143341 709.881531,342.428802 
	C710.995117,341.012482 710.430298,337.468018 709.450073,335.421783 
	C708.266846,332.951508 705.827820,331.895264 702.709351,333.415070 
	C701.405029,334.050781 699.449036,333.199677 697.819763,333.351166 
	C694.800598,333.631958 691.226807,333.318512 688.996033,334.860870 
	C687.452209,335.928284 687.774109,339.694153 687.713806,342.827240 
z"/>
<path fill="#DE0A14" opacity="1.000000" stroke="none" 
	d="
M493.916321,740.509644 
	C493.550415,739.796387 493.316895,738.964172 492.799011,738.387451 
	C483.417084,727.939209 473.270844,718.080383 464.765594,706.964966 
	C452.448059,690.867432 440.760864,674.219177 429.821777,657.153931 
	C418.019012,638.741333 410.343842,618.341675 405.544189,597.017456 
	C399.298767,569.269592 400.233093,541.888611 411.276520,515.283081 
	C411.898956,513.783508 412.401764,512.234253 413.266785,510.121674 
	C419.445923,496.717560 427.046173,484.981323 436.905701,474.937866 
	C465.266693,446.047882 499.497620,432.929108 540.016052,437.943665 
	C569.126953,441.546448 593.530518,454.804840 613.006348,476.432404 
	C622.372009,486.832794 630.104065,498.704224 638.489441,509.795074 
	C638.556335,509.685944 639.305054,508.621704 639.895569,507.475952 
	C646.888000,493.909149 655.757935,481.756927 666.649902,471.021912 
	C700.693726,437.468536 753.577026,426.922974 797.562073,445.390442 
	C845.686096,465.595703 875.130798,512.645935 875.727173,562.190247 
	C876.028381,587.209290 869.797791,611.005310 859.543640,633.661377 
	C854.354370,645.126709 848.014221,656.071167 842.194458,667.251099 
	C836.951660,674.539612 832.070679,682.124268 826.394409,689.057861 
	C812.515137,706.011353 798.268250,722.663940 784.084717,739.723755 
	C784.000183,740.010010 784.095276,739.989441 783.796021,740.076843 
	C783.423035,740.555420 783.349365,740.946655 783.024963,741.566467 
	C758.356384,756.031555 737.457275,774.436096 719.610168,796.215820 
	C685.557312,837.772339 667.552734,885.710144 663.804749,939.156372 
	C647.853821,939.104980 631.902832,939.053650 615.478271,938.522705 
	C614.110657,930.475403 613.319946,922.893738 612.304749,915.342285 
	C608.293091,885.504456 598.186218,857.751709 583.436462,831.612305 
	C567.794434,803.891602 547.238831,780.340149 522.312012,760.671997 
	C513.210327,753.490417 503.402161,747.204285 493.916321,740.509644 
z"/>
<path fill="#FABE03" opacity="1.000000" stroke="none" 
	d="
M842.604858,667.346741 
	C848.014221,656.071167 854.354370,645.126709 859.543640,633.661377 
	C869.797791,611.005310 876.028381,587.209290 875.727173,562.190247 
	C875.130798,512.645935 845.686096,465.595703 797.562073,445.390442 
	C753.577026,426.922974 700.693726,437.468536 666.649902,471.021912 
	C655.757935,481.756927 646.888000,493.909149 639.895569,507.475952 
	C639.305054,508.621704 638.556335,509.685944 638.489441,509.795074 
	C630.104065,498.704224 622.372009,486.832794 613.006348,476.432404 
	C593.530518,454.804840 569.126953,441.546448 540.016052,437.943665 
	C499.497620,432.929108 465.266693,446.047882 436.905701,474.937866 
	C427.046173,484.981323 419.445923,496.717560 413.301239,509.737671 
	C411.109283,506.488678 408.903290,503.159210 407.364227,499.545654 
	C406.222687,496.865479 404.548645,496.262115 401.906952,495.468994 
	C394.806671,493.337311 388.856812,494.018402 382.686493,498.573975 
	C380.585602,500.125061 376.136444,498.492004 372.759979,498.319916 
	C369.116577,498.134186 365.474426,497.881744 361.828552,497.800781 
	C359.571350,497.750702 357.307800,497.956696 355.047943,498.065216 
	C353.466248,498.141144 351.762482,497.892792 350.324585,498.394775 
	C338.376068,502.566010 331.321808,497.607178 331.117828,484.787720 
	C331.107635,484.148407 330.846954,483.513062 330.711121,482.912262 
	C320.089142,481.857391 317.016724,477.358307 319.796021,467.254364 
	C320.134155,466.024994 320.319183,464.582306 320.019409,463.376648 
	C318.123657,455.751892 320.779968,449.280640 325.000000,443.239288 
	C328.109314,438.788055 326.865387,433.532410 322.289795,430.868042 
	C314.460510,426.309082 313.315765,418.257538 312.209442,410.312195 
	C311.985291,408.702332 312.177002,407.034576 312.177002,405.293121 
	C305.958374,408.094543 305.117035,407.701660 303.220520,401.502441 
	C299.751434,402.427368 296.297119,404.028015 292.838318,404.037720 
	C290.430969,404.044495 286.884430,402.431885 285.924927,400.506897 
	C284.963104,398.577179 285.876099,394.928619 287.193817,392.788635 
	C291.837433,385.247406 298.115784,378.523682 301.664276,370.550812 
	C305.166260,362.682587 306.035553,353.656555 308.195038,345.172882 
	C310.239563,337.140564 312.418671,329.191498 318.110168,322.685272 
	C321.484924,318.827484 324.092529,314.284607 327.567291,310.533508 
	C329.650543,308.284576 332.752533,306.986206 335.373871,305.226654 
	C337.564026,303.756561 340.389679,302.686157 341.757782,300.648926 
	C344.896362,295.975433 346.790680,290.411560 350.211121,286.000946 
	C352.556915,282.976044 356.325958,280.221191 359.975098,279.211395 
	C367.971252,276.998688 376.118134,275.717590 383.266815,270.878693 
	C384.925995,269.755646 388.301941,271.168854 390.887939,271.415070 
	C390.158203,273.897827 390.199219,277.239197 388.560944,278.709839 
	C382.539612,284.114838 374.890961,286.044006 366.982361,286.588013 
	C360.452026,287.037201 360.165619,287.017822 361.560669,293.177795 
	C362.680969,298.124451 364.224518,302.975250 365.475677,307.491211 
	C367.669983,308.904755 369.841217,310.224731 371.825378,311.782959 
	C371.940887,311.873657 370.540436,313.894714 369.635986,315.355865 
	C372.735474,316.588501 376.414154,318.167755 374.073181,323.135468 
	C373.937042,323.424377 374.315002,324.129028 374.643860,324.437317 
	C378.924469,328.449768 379.585266,332.823822 377.091522,338.268311 
	C375.010223,342.812378 373.437195,347.147034 368.798798,350.185608 
	C365.732391,352.194397 364.046936,356.283234 361.673615,359.387634 
	C360.054596,361.505402 358.154877,363.423706 356.676575,365.629486 
	C355.284698,367.706238 354.280426,370.042786 352.879730,372.692352 
	C355.484009,373.698975 358.264191,375.099487 358.249390,379.475464 
	C358.244965,380.781403 361.923950,382.169830 363.988068,383.398285 
	C368.378967,386.011414 370.433197,390.961578 368.938873,395.558655 
	C367.512390,399.947083 370.516449,403.419678 375.273376,402.749207 
	C379.707825,402.124207 383.438141,400.288971 387.510468,398.105927 
	C394.429199,394.397064 398.100433,390.379028 397.672638,382.626770 
	C397.621826,381.706299 398.125458,380.644745 398.645905,379.821808 
	C401.305969,375.615875 401.065582,371.863892 398.459290,367.418823 
	C392.555542,357.349915 387.311768,346.895203 381.744568,336.627197 
	C379.934723,333.289185 380.113403,330.542175 382.942963,327.670288 
	C384.879791,325.704468 386.770355,323.190674 387.450623,320.598785 
	C388.683533,315.901337 392.004608,314.188568 395.905670,312.510406 
	C398.437317,311.421295 400.966949,309.946045 402.960999,308.072784 
	C406.501801,304.746490 410.307190,303.475769 415.230927,302.679382 
	C422.804626,301.454376 430.031525,298.052002 437.384521,295.512512 
	C440.053223,294.590820 442.661530,293.494232 445.706665,292.319550 
	C445.472168,289.504089 447.234314,286.831268 450.987701,287.159821 
	C453.267334,287.359406 455.382874,289.433258 458.641724,291.266998 
	C460.570557,290.605347 460.570557,290.605347 457.011993,281.031433 
	C454.238770,282.203186 451.563171,283.821533 448.672272,284.450623 
	C443.157623,285.650604 439.341034,281.751068 439.937744,276.207336 
	C440.156036,274.179474 440.151733,272.068024 439.848907,270.054901 
	C438.939697,264.009918 442.877502,255.838272 448.624603,254.267670 
	C451.169098,253.572311 454.718262,254.831161 457.271912,256.205322 
	C465.875732,260.835297 466.811951,264.066071 465.265594,273.682220 
	C463.177856,286.665161 470.566376,291.420471 480.732178,291.326019 
	C485.149109,291.285004 489.539673,288.780304 493.960815,288.718323 
	C498.742859,288.651276 503.845886,289.367981 508.271484,291.109009 
	C515.122009,293.803955 521.477051,297.738434 528.116211,300.996429 
	C533.843872,303.807220 535.612061,307.471039 534.591675,313.856628 
	C534.226440,316.142700 535.144958,318.607605 534.998291,320.960999 
	C534.769348,324.635376 534.005676,328.273895 533.702942,331.946930 
	C533.395630,335.675842 535.362122,338.505249 538.948792,338.564240 
	C546.299072,338.685059 553.695496,338.376831 561.010376,337.632050 
	C568.962524,336.822388 576.870239,335.464294 584.746460,334.060333 
	C589.682129,333.180573 594.676758,330.415192 599.370361,330.942139 
	C605.572571,331.638458 611.866943,334.070984 617.386780,337.097595 
	C619.780945,338.410370 620.341919,343.066528 622.305237,347.486633 
	C628.252930,348.990509 636.000854,350.546173 643.465515,352.973236 
	C648.794556,354.705902 653.589478,358.058105 658.900757,359.874664 
	C665.413757,362.102234 672.158142,363.796112 678.926208,365.057373 
	C681.278748,365.495728 684.094299,364.202820 686.532410,363.267822 
	C691.185303,361.483490 695.617188,359.077515 700.337952,357.531311 
	C703.494324,356.497437 707.007019,356.043213 710.331238,356.159515 
	C714.406616,356.302063 717.184937,354.814026 718.758972,351.291260 
	C720.713135,346.917511 723.417725,344.222168 728.662537,344.636169 
	C729.956177,344.738251 731.614014,343.421509 732.704590,342.350037 
	C737.404358,337.732819 741.648499,333.192505 749.579163,336.272766 
	C751.972290,337.202271 755.840637,334.333710 759.113770,332.282471 
	C757.856750,332.145599 756.583862,332.092163 755.345581,331.856659 
	C751.185547,331.065277 746.877319,330.631622 742.972351,329.148560 
	C741.603455,328.628662 740.295959,325.306061 740.599731,323.546295 
	C741.343323,319.239502 750.051270,315.674469 754.122375,317.529724 
	C755.007141,317.932892 755.948181,318.743286 756.780090,318.647064 
	C763.047302,317.922485 769.612976,317.953156 775.472412,315.952637 
	C784.450989,312.887207 793.130676,312.524658 802.425842,313.831604 
	C812.396423,315.233612 822.559143,315.272247 832.638733,315.893799 
	C833.793091,315.964996 835.214355,315.543579 836.054993,316.074280 
	C837.857483,317.212219 840.428162,318.654694 840.686035,320.287964 
	C840.941650,321.906769 839.139404,324.956604 837.549133,325.560638 
	C831.986328,327.673492 826.167969,329.176910 820.367249,330.584869 
	C811.987122,332.618958 803.614319,333.262787 795.132996,330.494110 
	C793.504944,329.962585 791.136719,331.697998 788.598633,332.561554 
	C793.081177,334.603729 796.588806,336.130676 800.032532,337.790253 
	C803.645020,339.531158 806.121826,341.733032 802.472778,345.420319 
	C807.653687,348.069092 813.590332,349.666901 817.349792,353.436218 
	C821.006958,357.102844 822.433655,362.994141 824.836243,367.901520 
	C828.307068,366.189453 831.567993,363.391846 834.957703,363.225983 
	C838.736145,363.041107 842.643799,365.212006 846.463013,366.456268 
	C847.023926,366.639038 847.346252,367.454559 847.882080,367.830048 
	C851.561584,370.408142 854.624939,373.092072 859.735352,369.143555 
	C865.319336,364.829132 870.263123,365.672668 874.713135,371.080872 
	C879.817017,377.283844 886.576538,378.892487 893.791565,379.760712 
	C897.792725,380.242218 901.620789,380.917358 903.050110,385.184418 
	C904.950195,390.857269 906.575684,396.717346 902.755859,402.306549 
	C902.185608,403.140961 900.852478,403.457092 899.867554,404.004333 
	C897.463257,405.340027 895.056274,406.670654 892.293579,408.200867 
	C899.514465,412.337952 899.612305,412.802490 894.185242,418.642548 
	C892.624084,420.322510 890.703857,421.668823 889.016968,423.109436 
	C891.315247,426.883759 893.527649,427.454773 896.640625,425.171844 
	C900.521790,422.325653 904.439819,422.455292 908.745483,424.916138 
	C910.496948,425.917206 913.930359,426.114136 915.450073,425.044769 
	C927.984619,416.224640 947.190430,429.121796 946.770081,442.497437 
	C951.997742,442.790405 957.265442,442.666962 962.386658,443.473755 
	C969.520508,444.597565 975.027954,449.310242 976.987732,455.711761 
	C978.595642,460.963715 980.547791,464.226715 985.561462,466.269867 
	C987.207397,466.940613 988.273621,469.518066 989.173645,471.426910 
	C990.702637,474.669952 992.188843,477.990112 993.155945,481.428894 
	C994.984558,487.930756 991.002747,493.708679 986.559937,495.728821 
	C978.595581,499.350220 976.117371,505.937134 973.160950,512.961792 
	C978.885010,523.504639 973.339905,533.803589 961.270386,534.559631 
	C960.331604,534.618469 959.127136,535.160339 958.570679,535.882141 
	C951.385864,545.202026 947.004517,546.354187 936.405579,541.360779 
	C933.945923,544.181030 931.938232,548.127747 926.800659,545.895691 
	C925.755493,545.441589 923.904785,546.841553 922.056030,547.522949 
	C922.617432,548.734863 922.846252,549.500549 923.280090,550.123352 
	C927.520020,556.210938 927.509094,556.861267 921.526489,561.803162 
	C919.450500,563.518127 919.374939,565.154541 921.139465,566.752319 
	C927.173767,572.216431 930.231384,580.637817 938.914185,583.606262 
	C942.402588,584.799011 943.514893,588.572876 942.306030,592.520874 
	C941.909729,593.815186 941.448547,595.888916 942.098938,596.564392 
	C944.749695,599.317200 944.057251,602.174683 942.719910,604.891907 
	C935.082214,620.410828 926.924805,635.593079 909.553955,642.451721 
	C901.760681,645.528809 893.927551,649.002502 885.246277,644.835449 
	C882.737915,643.631531 878.946899,646.806580 878.656372,649.755981 
	C877.679260,659.671753 872.772705,663.370483 862.640503,662.394653 
	C860.565369,662.194702 858.096863,663.180481 856.229614,664.312378 
	C852.096802,666.817749 847.920105,668.489563 842.604858,667.346741 
z"/>
<path fill="#F9BF60" opacity="1.000000" stroke="none" 
	d="
M664.270752,939.299072 
	C667.552734,885.710144 685.557312,837.772339 719.610168,796.215820 
	C737.457275,774.436096 758.356384,756.031555 783.307800,741.418884 
	C783.926025,740.691589 784.010681,740.340515 784.095276,739.989441 
	C784.095276,739.989441 784.000183,740.010010 784.007812,740.057861 
	C791.693176,735.980225 799.409729,731.924927 807.041260,727.715576 
	C827.787903,716.272766 845.294983,700.795776 861.787598,683.983337 
	C870.582214,675.018250 879.356506,665.906738 889.064148,657.995239 
	C901.660278,647.729919 919.801636,652.377930 925.292542,666.645874 
	C929.008728,676.301941 926.730530,685.362793 919.455505,692.294434 
	C901.169373,709.717285 882.428589,726.663025 863.865234,743.794800 
	C858.002258,749.205688 852.132385,754.609131 846.248779,759.997498 
	C843.400574,762.605835 842.495850,765.653625 845.150940,768.693481 
	C847.967834,771.918579 851.046143,770.831665 853.851990,768.296570 
	C865.345276,757.912598 876.922729,747.620178 888.319214,737.131104 
	C900.620972,725.808838 912.705139,714.250427 924.976685,702.894897 
	C937.361084,691.434998 943.409485,672.491150 932.462036,655.445618 
	C931.717529,654.286377 931.601929,652.229187 932.049377,650.871460 
	C941.307617,622.776672 950.297424,594.537170 963.699463,568.073669 
	C967.521729,560.526367 972.745850,553.285706 978.759338,547.357300 
	C985.712952,540.502075 994.906250,539.839233 1003.760376,544.352112 
	C1011.546326,548.320679 1016.062256,558.021179 1014.380554,567.823486 
	C1009.372131,597.016724 1004.679321,626.288696 998.621582,655.270447 
	C992.429871,684.892700 984.792419,714.218750 973.975403,742.581421 
	C971.973389,747.830688 969.468018,752.888000 966.759155,758.557739 
	C966.198730,759.728333 966.074036,760.375183 965.949341,761.021973 
	C965.949341,761.021973 965.945923,760.957947 965.625122,760.956116 
	C960.041870,767.368408 955.096252,774.076782 949.460266,780.143860 
	C929.157166,802.000000 905.432434,819.619934 879.407227,833.924622 
	C857.878479,845.757812 835.584229,856.189270 813.812683,867.592285 
	C784.498962,882.945679 764.024963,905.428589 757.776001,938.980103 
	C743.951599,939.089722 730.127380,939.234497 716.302734,939.300049 
	C699.114258,939.381470 681.925415,939.397522 664.270752,939.299072 
z"/>
<path fill="#E48A23" opacity="1.000000" stroke="none" 
	d="
M493.562805,740.399170 
	C503.402161,747.204285 513.210327,753.490417 522.312012,760.671997 
	C547.238831,780.340149 567.794434,803.891602 583.436462,831.612305 
	C598.186218,857.751709 608.293091,885.504456 612.304749,915.342285 
	C613.319946,922.893738 614.110657,930.475403 615.011963,938.487061 
	C614.209473,939.070801 613.399719,939.333008 612.589905,939.332947 
	C582.349121,939.329834 552.108337,939.302612 521.423584,938.693237 
	C519.408142,932.362732 518.363159,926.408142 516.174866,920.908447 
	C506.284180,896.050659 487.809052,879.289490 464.530151,867.223511 
	C440.961456,855.007385 417.000671,843.481018 393.935486,830.378296 
	C368.429047,815.888733 345.308594,798.000183 325.750366,775.873718 
	C321.418091,770.972534 317.216766,765.955566 312.955170,760.991943 
	C312.955170,760.991943 313.013794,760.986938 312.974426,760.716064 
	C312.667572,760.144104 312.400116,759.843079 312.132690,759.542053 
	C302.581055,740.464539 295.871704,720.265625 290.798767,699.695862 
	C282.569458,666.327393 275.396637,632.691528 268.222382,599.073730 
	C265.974243,588.539246 265.001068,577.717896 263.730621,566.993958 
	C262.626068,557.670105 267.116486,548.424805 274.075287,544.769470 
	C283.169189,539.992554 292.655762,540.916321 300.512482,547.592529 
	C309.951385,555.613159 315.210083,566.589233 319.598389,577.637085 
	C329.097473,601.551636 337.683838,625.830322 346.466278,650.024475 
	C347.084625,651.727905 346.911133,654.355347 345.991486,655.881653 
	C337.216919,670.443420 339.686676,689.727234 352.070557,701.142639 
	C372.964233,720.402588 393.877380,739.641479 414.780518,758.891235 
	C418.448975,762.269592 422.180969,765.583435 425.749481,769.064575 
	C428.622284,771.867065 431.418335,770.887756 433.613495,768.648743 
	C435.842285,766.375549 435.799316,763.539673 433.257690,761.163452 
	C420.019836,748.786804 406.808746,736.381348 393.528870,724.049927 
	C382.080688,713.419556 370.202209,703.226318 359.153687,692.198792 
	C346.907379,679.975769 350.597107,660.475891 366.228027,654.297974 
	C375.592804,650.596619 384.678558,652.789551 392.259857,659.433411 
	C397.628479,664.138184 402.654877,669.254517 407.623779,674.390564 
	C424.989258,692.340332 442.515228,710.101257 464.088287,723.155151 
	C473.723328,728.985291 483.498016,734.584656 493.562805,740.399170 
z"/>
<path fill="#FAFAFC" opacity="1.000000" stroke="none" 
	d="
M260.415466,1126.593628 
	C215.272369,1118.769897 189.732376,1080.951904 193.397949,1038.636963 
	C196.622604,1001.411865 216.498108,975.857361 252.616562,965.395569 
	C283.180969,956.542603 311.863525,961.471130 336.241272,983.555786 
	C337.929443,985.085205 339.300903,986.964233 341.368317,989.300781 
	C333.346191,996.513489 325.446655,1003.616028 317.309784,1010.931885 
	C306.030975,998.877014 290.795502,992.933533 272.741516,994.870544 
	C261.232208,996.105469 251.192734,1000.859802 243.440079,1009.428223 
	C225.097794,1029.700806 225.544373,1062.353394 243.995697,1081.717163 
	C259.665009,1098.161377 296.137024,1102.816406 318.630829,1078.049072 
	C326.102936,1085.553833 333.580353,1093.063965 341.383148,1100.900757 
	C319.508698,1124.589478 291.963074,1131.092529 260.415466,1126.593628 
z"/>
<path fill="#FBFAFC" opacity="1.000000" stroke="none" 
	d="
M653.979370,993.000000 
	C653.974976,1036.773682 653.974976,1080.047363 653.974976,1123.636719 
	C643.523132,1123.636719 633.466125,1123.636719 623.038208,1123.636719 
	C622.822632,1119.348022 622.617493,1115.266724 622.390503,1110.750977 
	C619.321960,1113.551880 616.694824,1116.463867 613.584717,1118.705933 
	C592.631897,1133.810669 561.937683,1128.035767 546.211670,1106.745850 
	C531.122559,1086.318115 529.381165,1045.020264 554.445435,1023.170288 
	C570.163269,1009.468201 602.584961,1004.744202 621.790283,1026.950928 
	C621.790283,1015.898071 621.790283,1005.569275 621.790283,995.240417 
	C621.790283,984.757690 621.790283,974.274902 621.790283,963.326050 
	C632.477173,963.326050 642.873779,963.326050 653.983765,963.326050 
	C653.983765,972.981384 653.983765,982.740662 653.979370,993.000000 
M568.825012,1066.782593 
	C568.826538,1068.937378 568.614563,1071.117310 568.866028,1073.242554 
	C570.052429,1083.268677 574.375671,1091.572754 583.860840,1095.794556 
	C593.463440,1100.068726 603.091614,1099.397217 611.703125,1092.819824 
	C624.556519,1083.002441 626.086731,1060.283569 614.172485,1048.768188 
	C610.451172,1045.171387 605.149353,1042.161865 600.117981,1041.161011 
	C583.860779,1037.927002 572.156067,1047.592773 568.825012,1066.782593 
z"/>
<path fill="#FAF9FC" opacity="1.000000" stroke="none" 
	d="
M737.999634,1118.016235 
	C723.112976,1130.389771 697.834045,1129.117432 685.537842,1120.913818 
	C674.538452,1113.575439 670.385864,1102.994629 671.381775,1090.468018 
	C672.450439,1077.027344 679.619263,1067.710938 692.539001,1062.966064 
	C706.516296,1057.832886 720.870544,1057.965942 735.362244,1059.369873 
	C737.663879,1059.592773 739.963867,1059.832031 742.226440,1060.060059 
	C744.762817,1049.337158 738.287720,1040.331299 727.390442,1038.935791 
	C717.061951,1037.613281 707.589355,1039.721924 698.997498,1045.659424 
	C696.957581,1047.069092 694.886475,1048.433472 692.448853,1050.075195 
	C687.327820,1043.464966 682.293579,1036.966553 677.108093,1030.272949 
	C684.462952,1022.671570 692.887146,1017.833313 702.351990,1014.905518 
	C716.158936,1010.634338 730.195190,1010.203247 744.171570,1013.981201 
	C763.538147,1019.216187 774.104309,1032.350342 774.968994,1054.741333 
	C775.848816,1077.524414 775.163452,1100.367920 775.163452,1123.587646 
	C765.059143,1123.587646 755.182983,1123.587646 744.813904,1123.587646 
	C744.813904,1119.714111 744.813904,1115.991821 744.813904,1112.269531 
	C744.412720,1112.036743 744.011536,1111.803955 743.610352,1111.571167 
	C741.827087,1113.635498 740.043762,1115.699951 737.999634,1118.016235 
M743.153503,1085.227417 
	C743.153503,1083.305542 743.153503,1081.383789 743.153503,1078.984985 
	C734.561890,1078.984985 726.618958,1078.701050 718.713928,1079.124756 
	C715.550537,1079.294312 712.150269,1080.491943 709.414429,1082.143555 
	C701.901550,1086.678955 701.814087,1096.510132 709.018738,1100.971924 
	C718.986023,1107.144409 741.785706,1102.380615 743.153503,1085.227417 
z"/>
<path fill="#F9F9FC" opacity="1.000000" stroke="none" 
	d="
M424.081299,1118.086182 
	C410.358154,1129.092896 395.355255,1129.445923 379.913452,1124.224976 
	C364.976440,1119.174561 357.645264,1107.616455 355.187164,1092.610840 
	C354.517700,1088.524170 354.222107,1084.334839 354.201660,1080.190308 
	C354.103180,1060.195190 354.157318,1040.199341 354.157318,1020.203674 
	C354.157318,1018.408386 354.157318,1016.613098 354.157318,1014.511597 
	C365.103394,1014.511597 375.596802,1014.511597 386.830322,1014.511597 
	C386.830322,1016.275879 386.830261,1018.033447 386.830292,1019.791077 
	C386.830780,1038.620239 386.701202,1057.450684 386.872864,1076.278320 
	C387.010986,1091.425171 395.734772,1099.273560 410.707245,1098.167969 
	C420.839600,1097.419800 429.764069,1088.743652 430.047577,1078.057861 
	C430.555542,1058.914062 430.373871,1039.751831 430.477539,1020.597229 
	C430.488159,1018.631775 430.478943,1016.666199 430.478943,1014.585571 
	C441.524933,1014.585571 452.018066,1014.585571 462.749451,1014.585571 
	C462.749451,1051.041382 462.749451,1087.151489 462.749451,1123.631836 
	C452.864807,1123.631836 442.835846,1123.631836 432.130188,1123.631836 
	C432.130188,1119.513062 432.130188,1115.345459 432.130188,1109.846069 
	C428.878967,1113.216309 426.628174,1115.549561 424.081299,1118.086182 
z"/>
<path fill="#FAFAFC" opacity="1.000000" stroke="none" 
	d="
M969.008423,1068.061768 
	C969.905945,1039.802246 987.265564,1017.590393 1011.909424,1012.689514 
	C1047.301392,1005.651184 1075.765015,1028.734131 1076.202637,1064.844727 
	C1076.254639,1069.130127 1076.209839,1073.416504 1076.209839,1078.083008 
	C1050.953613,1078.083008 1026.524780,1078.083008 1001.446350,1078.083008 
	C1002.861572,1086.821045 1007.040283,1092.914429 1014.445312,1096.699341 
	C1027.094482,1103.164795 1041.365479,1100.899902 1055.245361,1090.136963 
	C1060.649902,1096.440918 1066.069458,1102.762207 1071.463135,1109.053467 
	C1053.604614,1126.714111 1025.593750,1132.205811 1002.120728,1121.901855 
	C979.190063,1111.835938 969.246033,1093.033447 969.008423,1068.061768 
M1024.541626,1037.486572 
	C1011.329895,1038.533813 1002.606506,1046.251831 1002.061707,1057.524658 
	C1016.940369,1057.524658 1031.808594,1057.524658 1046.755615,1057.524658 
	C1044.303955,1044.611328 1037.766602,1038.595703 1024.541626,1037.486572 
z"/>
<path fill="#F9F9FC" opacity="1.000000" stroke="none" 
	d="
M894.900024,1041.975220 
	C889.957581,1041.975708 885.501099,1041.975708 880.767822,1041.975708 
	C880.767822,1032.775757 880.767822,1024.004028 880.767822,1014.601196 
	C886.652649,1014.601196 892.533936,1014.601196 898.969177,1014.601196 
	C898.969177,1003.766724 898.969177,993.541260 898.969177,982.923462 
	C909.897461,982.923462 920.274658,982.923462 931.132141,982.923462 
	C931.132141,993.217773 931.132141,1003.431091 931.132141,1014.040100 
	C940.648254,1014.040100 949.696106,1014.040100 959.129639,1014.040100 
	C959.129639,1023.474609 959.129639,1032.506592 959.129639,1041.972656 
	C949.880371,1041.972656 940.806824,1041.972656 931.494568,1041.972656 
	C931.494568,1056.832031 930.958801,1071.290771 931.687317,1085.685547 
	C932.154724,1094.921387 938.819885,1099.189575 948.154358,1097.866943 
	C951.568909,1097.383057 954.942627,1096.611206 958.630615,1095.914917 
	C959.308044,1104.679077 959.970825,1113.253784 960.657410,1122.136963 
	C946.170410,1126.999878 931.673645,1128.716797 917.397949,1122.076904 
	C904.263916,1115.967896 899.367188,1104.532227 899.203674,1090.750488 
	C899.025818,1075.762573 899.080750,1060.770142 899.223022,1045.781494 
	C899.251526,1042.781128 898.569458,1041.334717 894.900024,1041.975220 
z"/>
<path fill="#DE0B14" opacity="1.000000" stroke="none" 
	d="
M312.962585,761.376587 
	C317.216766,765.955566 321.418091,770.972534 325.750366,775.873718 
	C345.308594,798.000183 368.429047,815.888733 393.935486,830.378296 
	C417.000671,843.481018 440.961456,855.007385 464.530151,867.223511 
	C487.809052,879.289490 506.284180,896.050659 516.174866,920.908447 
	C518.363159,926.408142 519.408142,932.362732 520.981628,938.519653 
	C510.184570,938.931458 499.385437,938.931458 488.424194,938.931458 
	C480.526642,913.483643 462.114685,897.721497 440.058716,884.950378 
	C421.545227,874.230469 402.800232,863.703796 385.360962,851.387756 
	C363.762543,836.134460 345.339203,817.134216 330.746338,794.970581 
	C323.870056,784.526855 318.837830,772.869019 312.962585,761.376587 
z"/>
<path fill="#DE0B14" opacity="1.000000" stroke="none" 
	d="
M758.261230,938.993591 
	C764.024963,905.428589 784.498962,882.945679 813.812683,867.592285 
	C835.584229,856.189270 857.878479,845.757812 879.407227,833.924622 
	C905.432434,819.619934 929.157166,802.000000 949.460266,780.143860 
	C955.096252,774.076782 960.041870,767.368408 965.656738,760.950806 
	C960.717163,776.434631 952.527527,790.425293 942.293762,802.989380 
	C932.713013,814.751831 922.608948,826.252808 911.557007,836.611877 
	C896.610413,850.621460 879.570557,862.009094 861.707642,872.174744 
	C847.095276,880.490356 832.396057,888.811401 818.634766,898.418396 
	C805.803711,907.376099 797.080017,920.180542 792.154114,935.177185 
	C791.116577,938.335754 789.754944,939.256226 786.653381,939.190369 
	C777.354004,938.992859 768.049194,939.049622 758.261230,938.993591 
z"/>
<path fill="#F8F7FB" opacity="1.000000" stroke="none" 
	d="
M797.838623,1014.117249 
	C807.913391,1014.117249 817.988159,1014.117249 828.669678,1014.117249 
	C828.669678,1020.481750 828.669678,1026.497559 828.669678,1033.440918 
	C840.603333,1014.853882 851.742981,1009.383301 868.251038,1013.112976 
	C868.251038,1023.598938 868.251038,1033.997803 868.251038,1043.197144 
	C860.582520,1044.045044 853.431335,1043.707886 847.066833,1045.783081 
	C835.187378,1049.656738 830.348694,1059.535034 830.083557,1071.370728 
	C829.696716,1088.638428 829.984131,1105.921265 829.984131,1123.841553 
	C819.277161,1123.841553 808.845032,1123.841553 797.936279,1123.410400 
	C797.454224,1088.991577 797.441162,1055.004028 797.460388,1021.016541 
	C797.461731,1018.716736 797.706848,1016.416992 797.838623,1014.117249 
z"/>
<path fill="#FCFBFD" opacity="1.000000" stroke="none" 
	d="
M486.020020,1014.233887 
	C496.315216,1014.214294 506.610382,1014.194641 517.556519,1014.542358 
	C518.214417,1019.721558 518.232300,1024.533569 518.226685,1029.345459 
	C518.189514,1060.907104 518.147156,1092.468628 518.106567,1124.030273 
	C507.754761,1123.971069 497.402924,1123.911621 486.467957,1123.448975 
	C485.851624,1102.412720 485.779510,1081.779663 485.798065,1061.146606 
	C485.812134,1045.509033 485.941803,1029.871460 486.020020,1014.233887 
z"/>
<path fill="#F5BD07" opacity="1.000000" stroke="none" 
	d="
M718.077271,173.336578 
	C715.792358,172.653915 713.443787,171.930527 711.559265,170.566238 
	C706.064697,166.588593 700.755493,162.354797 695.185120,158.076645 
	C687.500854,163.580490 679.919617,169.010544 672.338318,174.440613 
	C671.952454,174.161545 671.566528,173.882477 671.180664,173.603409 
	C671.387634,172.447861 671.478882,171.256866 671.820374,170.142563 
	C673.959534,163.162445 675.973145,156.134796 678.422729,149.263489 
	C679.364807,146.620682 678.635437,145.346527 676.634216,143.893692 
	C670.090881,139.143539 663.640686,134.265045 655.964355,128.549576 
	C658.558167,127.940529 659.820129,127.404449 661.089355,127.386665 
	C667.414917,127.298012 673.754944,127.104279 680.064697,127.431862 
	C684.128723,127.642838 686.215454,126.565994 687.335754,122.339302 
	C689.072205,115.788223 691.608887,109.448021 693.845154,103.031929 
	C694.197998,102.019478 694.754333,101.077934 695.852722,98.762665 
	C697.149658,102.356133 698.081421,104.691338 698.837646,107.082092 
	C700.686951,112.928780 702.272949,118.868378 704.393494,124.612350 
	C704.878296,125.925621 707.054626,127.361610 708.519775,127.437363 
	C715.129761,127.779144 721.764160,127.639297 728.389404,127.703926 
	C729.982788,127.719467 731.575012,127.853241 733.167725,127.932648 
	C733.394165,128.391006 733.620544,128.849365 733.846985,129.307724 
	C726.325623,135.037201 718.804321,140.766678 711.382874,146.420059 
	C713.708313,155.454071 715.966980,164.228561 718.077271,173.336578 
z"/>
<path fill="#F6BD07" opacity="1.000000" stroke="none" 
	d="
M563.039368,110.810959 
	C564.358032,106.873482 565.523315,103.305908 566.688538,99.738335 
	C567.163696,99.736984 567.638855,99.735641 568.113953,99.734291 
	C571.240845,108.725388 574.367737,117.716484 577.581970,126.958679 
	C587.052002,126.958679 596.388489,126.958679 605.724976,126.958679 
	C605.898254,127.324707 606.071594,127.690742 606.244873,128.056763 
	C602.583374,131.043228 599.011658,134.148636 595.243408,136.993668 
	C584.252014,145.291992 584.208313,145.255020 588.058228,158.316025 
	C589.439941,163.003738 590.900635,167.668167 592.325256,172.343216 
	C591.857056,172.738815 591.388916,173.134415 590.920776,173.529999 
	C583.416321,168.355759 575.911926,163.181519 568.403809,158.004730 
	C561.087219,163.545120 553.850525,169.024979 545.687439,175.206390 
	C545.552429,173.118851 545.226685,172.082672 545.469360,171.203384 
	C547.456665,164.002487 549.460693,156.803299 551.660217,149.665405 
	C552.414429,147.217773 551.980286,145.901459 549.747070,144.410614 
	C543.025330,139.923462 536.533264,135.092239 528.574646,129.412506 
	C531.613831,128.794113 533.155029,128.262589 534.714661,128.201233 
	C541.193359,127.946350 547.677063,127.787926 554.160339,127.690628 
	C556.740479,127.651917 558.388306,127.061447 559.039246,124.067940 
	C559.989075,119.699966 561.572571,115.469788 563.039368,110.810959 
z"/>
<path fill="#F5BD07" opacity="1.000000" stroke="none" 
	d="
M269.872162,276.165161 
	C273.241150,276.165161 276.132294,276.165161 279.023468,276.165161 
	C279.226532,276.746460 279.429596,277.327789 279.632629,277.909088 
	C272.310638,283.676819 264.988617,289.444550 257.423767,295.403564 
	C260.276917,304.396118 263.137299,313.411530 265.997711,322.426941 
	C265.541534,322.735931 265.085327,323.044952 264.629150,323.353943 
	C258.064789,318.826294 251.323303,314.528351 245.017303,309.665680 
	C242.227249,307.514191 240.622559,307.945129 238.234421,309.928436 
	C233.254745,314.063995 228.070953,317.956451 222.913971,321.873688 
	C221.821533,322.703491 220.484833,323.211731 219.260681,323.868164 
	C218.849152,323.608826 218.437637,323.349487 218.026108,323.090149 
	C219.519577,317.664917 220.929260,312.214935 222.524185,306.819702 
	C225.722015,296.002075 225.755325,296.026093 216.504227,289.309631 
	C212.006348,286.044098 207.546890,282.725677 203.070038,279.431183 
	C203.191757,278.884094 203.313492,278.337006 203.435211,277.789917 
	C212.698029,277.789917 221.960831,277.789917 231.208405,277.789917 
	C234.331146,267.746185 237.144623,258.697205 239.958084,249.648224 
	C240.389954,249.636673 240.821808,249.625107 241.253677,249.613556 
	C241.841583,250.861679 242.536636,252.071472 242.999359,253.364395 
	C245.342056,259.910126 247.795227,266.424744 249.842255,273.063568 
	C250.641632,275.656067 251.837753,276.493134 254.412796,276.386963 
	C259.401215,276.181213 264.399902,276.224854 269.872162,276.165161 
z"/>
<path fill="#F6BD07" opacity="1.000000" stroke="none" 
	d="
M908.718384,237.550781 
	C910.102539,233.938263 911.342712,230.688858 912.707886,227.111893 
	C905.663391,221.046066 898.589111,214.954575 891.514832,208.863083 
	C891.677551,208.367172 891.840332,207.871246 892.003113,207.375336 
	C893.641663,207.375336 895.283630,207.305756 896.918091,207.387497 
	C903.715088,207.727463 910.507690,208.252975 917.307190,208.353760 
	C918.540405,208.372025 920.427307,206.990204 920.942993,205.793777 
	C924.335510,197.923645 927.434937,189.927200 930.630005,181.971939 
	C931.119385,181.944290 931.608826,181.916626 932.098206,181.888962 
	C934.624695,191.134491 937.151245,200.380005 939.754272,209.905685 
	C949.041199,210.698349 958.324158,211.490677 967.607178,212.283005 
	C967.739929,212.751038 967.872681,213.219086 968.005432,213.687134 
	C966.516663,214.779984 965.075439,215.946121 963.528809,216.949753 
	C960.743286,218.757248 957.872620,220.433090 955.076111,222.224182 
	C944.044922,229.289474 944.087708,229.289261 947.200867,242.296616 
	C948.330200,247.015259 949.234497,251.787781 950.241455,256.535706 
	C949.795227,256.813110 949.349060,257.090485 948.902893,257.367859 
	C941.815552,251.579208 934.728210,245.790558 927.533813,239.914429 
	C919.781311,244.768143 912.110168,249.570892 904.439026,254.373642 
	C903.934326,254.115250 903.429688,253.856857 902.924988,253.598465 
	C904.808105,248.370270 906.691223,243.142075 908.718384,237.550781 
z"/>
<path fill="#F5BD07" opacity="1.000000" stroke="none" 
	d="
M326.657104,250.647247 
	C324.845062,252.021072 323.301117,253.155899 320.497986,255.216232 
	C320.812286,252.420288 320.796906,251.055389 321.136719,249.785568 
	C322.940826,243.044205 324.990204,236.362991 326.568665,229.571228 
	C326.896118,228.162354 326.080933,225.734009 324.953522,224.869690 
	C319.694885,220.838303 314.136322,217.198853 308.698669,213.399689 
	C307.397919,212.490875 306.149597,211.507095 303.655182,209.646133 
	C306.484344,208.998215 307.898987,208.447403 309.335114,208.383972 
	C316.148193,208.082932 322.966736,207.787857 329.784302,207.763351 
	C332.424316,207.753860 333.492157,206.898193 334.165192,204.304932 
	C335.874542,197.718597 337.970551,191.231522 339.964691,184.720917 
	C340.471130,183.067398 341.175323,181.474411 341.788635,179.853607 
	C342.223602,179.842056 342.658539,179.830490 343.093506,179.818924 
	C346.321198,188.791779 349.548889,197.764633 352.740265,206.636520 
	C362.195709,206.636520 371.400146,206.636520 380.604584,206.636520 
	C380.805542,207.002731 381.006500,207.368942 381.207458,207.735138 
	C378.704407,209.890640 376.258057,212.116760 373.684174,214.184082 
	C370.318573,216.887314 366.966827,219.634949 363.394989,222.046234 
	C360.181427,224.215622 359.210846,226.479034 360.722015,230.321213 
	C362.905029,235.871567 364.474731,241.666367 366.224487,247.381866 
	C366.715393,248.985352 366.920044,250.676498 367.255981,252.327454 
	C366.862915,252.574371 366.469849,252.821289 366.076782,253.068207 
	C359.988678,248.934845 353.657806,245.108246 347.902954,240.553802 
	C344.413605,237.792267 342.173737,237.991806 339.047729,240.844589 
	C335.255676,244.305145 330.987366,247.243790 326.657104,250.647247 
z"/>
<path fill="#F5BD07" opacity="1.000000" stroke="none" 
	d="
M446.853455,198.819016 
	C443.762177,201.207260 440.971222,203.402817 438.180298,205.598389 
	C437.745148,205.327744 437.309998,205.057114 436.874878,204.786484 
	C437.416107,202.019516 437.825348,199.218552 438.527283,196.492966 
	C439.806854,191.524384 441.182922,186.577133 442.669922,181.666779 
	C443.542999,178.783844 443.192169,176.896301 440.319336,175.070953 
	C433.663452,170.841934 427.317657,166.124847 419.630402,160.756668 
	C422.501892,160.154617 423.983002,159.643967 425.487183,159.563232 
	C432.131409,159.206619 438.782257,158.782303 445.430817,158.780258 
	C448.556152,158.779297 449.587372,157.763153 450.309021,154.715683 
	C451.914124,147.937195 454.157410,141.308136 456.200134,134.636398 
	C456.611176,133.293945 457.286224,132.032303 458.465210,129.264740 
	C461.028687,136.092300 463.122192,141.547333 465.127563,147.034576 
	C469.265991,158.358475 469.241730,158.289383 481.267303,157.514648 
	C485.913361,157.215347 490.587219,157.332672 495.248627,157.311127 
	C495.684570,157.309113 496.122223,157.675079 498.002319,158.514771 
	C490.211060,164.781219 483.014771,170.569122 475.433258,176.666855 
	C478.265594,185.281631 481.168762,194.111816 484.071899,202.942001 
	C483.520447,203.201645 482.968994,203.461304 482.417511,203.720963 
	C475.039307,198.766281 467.661072,193.811600 459.853485,188.568588 
	C455.675507,191.877441 451.414673,195.251877 446.853455,198.819016 
z"/>
<path fill="#F6BD07" opacity="1.000000" stroke="none" 
	d="
M1017.663025,269.461212 
	C1019.525208,263.984619 1021.236023,258.871124 1022.946838,253.757614 
	C1023.539124,253.753738 1024.131348,253.749847 1024.723633,253.745956 
	C1025.784912,257.046143 1026.873657,260.337860 1027.901611,263.648407 
	C1029.697632,269.432251 1029.800415,277.277100 1033.704712,280.431519 
	C1037.473633,283.476654 1045.146973,281.690918 1051.105347,282.023865 
	C1054.172729,282.195282 1057.240601,282.359070 1060.308228,282.526306 
	C1060.458740,282.949982 1060.609131,283.373657 1060.759521,283.797333 
	C1058.840332,285.390289 1057.005493,287.100555 1054.985107,288.552826 
	C1050.138794,292.036407 1045.109375,295.273895 1040.383911,298.909821 
	C1039.373291,299.687439 1038.688477,301.869598 1038.961914,303.172089 
	C1040.490723,310.456146 1042.375977,317.664917 1044.092651,324.910492 
	C1044.318726,325.864777 1044.276855,326.882538 1044.474976,329.265411 
	C1037.291138,323.702698 1031.033936,319.175903 1025.180054,314.176880 
	C1022.636719,312.004822 1020.867004,312.076477 1018.368103,313.849854 
	C1012.833740,317.777374 1007.181641,321.539948 1001.543518,325.319031 
	C1000.703613,325.882050 999.678955,326.169556 997.364746,327.192108 
	C1000.735535,317.204651 1003.662842,308.531433 1006.726257,299.454773 
	C1000.562744,294.436768 994.264343,289.354828 988.036560,284.187714 
	C987.133118,283.438141 986.567932,282.280792 985.846252,281.312103 
	C987.000427,280.930237 988.157654,280.212036 989.308167,280.222687 
	C995.453003,280.279449 1001.618896,280.254913 1007.732178,280.782867 
	C1012.122314,281.162079 1014.606995,279.882141 1015.433472,275.404968 
	C1015.788330,273.482391 1016.798950,271.680847 1017.663025,269.461212 
z"/>
<path fill="#F6BD07" opacity="1.000000" stroke="none" 
	d="
M817.306030,138.292480 
	C818.617126,135.654144 819.780884,133.363007 820.944641,131.071854 
	C821.312988,131.131729 821.681335,131.191589 822.049683,131.251450 
	C824.009644,139.428772 826.139465,147.571106 827.835754,155.802734 
	C828.416443,158.620438 829.474304,159.581512 832.291199,159.761169 
	C839.424866,160.216141 846.537354,161.011047 853.654419,161.709122 
	C854.562378,161.798187 855.447388,162.121277 858.061218,162.747772 
	C849.013916,168.466385 841.183472,173.415863 833.179565,178.474976 
	C835.091919,187.625687 836.980347,196.661850 838.868774,205.698013 
	C838.392456,206.009232 837.916138,206.320465 837.439819,206.631699 
	C830.505920,200.697464 823.572083,194.763245 816.429443,188.650406 
	C808.522827,193.577255 800.724121,198.436859 792.925415,203.296478 
	C792.557861,203.042282 792.190308,202.788086 791.822754,202.533890 
	C792.174744,201.074310 792.367249,199.552795 792.906067,198.165802 
	C795.312073,191.972305 797.599548,185.717010 800.377075,179.690155 
	C801.786011,176.633102 800.982117,174.960159 798.656677,173.040253 
	C793.789429,169.021744 789.121338,164.762802 784.325623,160.656174 
	C783.102478,159.608810 781.707581,158.761993 780.391541,157.823090 
	C780.706543,157.259750 781.021606,156.696426 781.336609,156.133102 
	C782.671875,156.064468 784.015320,155.865570 785.341064,155.949020 
	C792.313354,156.388031 799.276611,157.025452 806.254456,157.272415 
	C807.585693,157.319519 809.676697,156.257553 810.206421,155.135651 
	C812.751587,149.744537 814.881409,144.157288 817.306030,138.292480 
z"/>
<path fill="#F8F7FB" opacity="1.000000" stroke="none" 
	d="
M510.127563,962.537231 
	C518.644714,967.255920 522.244934,974.061890 521.060974,982.774475 
	C520.117188,989.720276 514.327087,996.147522 507.520172,997.805420 
	C498.719543,999.948914 490.952637,997.328674 485.967285,990.246216 
	C481.379425,983.728455 481.528412,976.531433 485.302521,970.048950 
	C489.514465,962.814453 496.630798,960.146729 504.968414,961.184265 
	C506.598450,961.386963 508.184753,961.941101 510.127563,962.537231 
z"/>
<path fill="#F1BC0A" opacity="1.000000" stroke="none" 
	d="
M674.343567,307.649780 
	C673.947693,315.504395 666.021545,319.916748 659.505920,316.553741 
	C657.823669,315.685394 655.526855,315.402039 653.633545,315.678986 
	C650.097839,316.196198 646.833984,315.585419 645.723022,312.260864 
	C644.963806,309.988953 645.319275,306.497284 646.653503,304.577515 
	C648.516418,301.897125 651.406128,299.355927 655.560364,301.595734 
	C656.653992,302.185425 658.460144,302.222870 659.638794,301.755829 
	C665.581421,299.401001 671.002136,301.361176 674.343567,307.649780 
z"/>
<path fill="#F1BC0A" opacity="1.000000" stroke="none" 
	d="
M711.198853,315.109253 
	C708.426636,317.938599 705.694275,319.173798 702.018677,317.600830 
	C700.843567,317.097961 699.130432,317.984955 697.818115,317.642914 
	C695.002075,316.908905 691.776062,316.372406 689.737915,314.589233 
	C688.662415,313.648254 688.837646,309.257538 690.028137,308.195557 
	C692.080688,306.364685 695.317627,305.736359 698.155884,304.965302 
	C699.534851,304.590698 701.168884,304.864075 702.629700,305.144653 
	C705.408264,305.678284 708.908447,305.641174 710.657349,307.337616 
	C712.046570,308.685089 711.272095,312.263184 711.198853,315.109253 
z"/>
<path fill="#F1BC0A" opacity="1.000000" stroke="none" 
	d="
M687.488037,342.540741 
	C687.774109,339.694153 687.452209,335.928284 688.996033,334.860870 
	C691.226807,333.318512 694.800598,333.631958 697.819763,333.351166 
	C699.449036,333.199677 701.405029,334.050781 702.709351,333.415070 
	C705.827820,331.895264 708.266846,332.951508 709.450073,335.421783 
	C710.430298,337.468018 710.995117,341.012482 709.881531,342.428802 
	C708.533447,344.143341 705.274780,344.555969 702.749023,345.078888 
	C700.835571,345.475037 698.726135,345.439972 696.791382,345.099640 
	C693.727112,344.560669 690.735901,343.605988 687.488037,342.540741 
z"/>
<path fill="#0A197E" opacity="1.000000" stroke="none" 
	d="
M518.465820,1123.872314 
	C518.147156,1092.468628 518.189514,1060.907104 518.226685,1029.345459 
	C518.232300,1024.533569 518.214417,1019.721558 518.012268,1014.478638 
	C518.543884,1015.497864 519.899841,1016.945740 519.905029,1018.398438 
	C520.024719,1052.143188 520.011597,1085.888550 519.948669,1119.633545 
	C519.946106,1120.994507 519.216064,1122.354248 518.465820,1123.872314 
z"/>
<path fill="#0A197E" opacity="1.000000" stroke="none" 
	d="
M485.597382,1014.386108 
	C485.941803,1029.871460 485.812134,1045.509033 485.798065,1061.146606 
	C485.779510,1081.779663 485.851624,1102.412720 486.009521,1123.496094 
	C485.423706,1122.481567 484.098022,1121.018921 484.092865,1119.551392 
	C483.975800,1085.915894 483.988861,1052.279663 484.052246,1018.643799 
	C484.054840,1017.274658 484.784088,1015.906799 485.597382,1014.386108 
z"/>
<path fill="#0A197E" opacity="1.000000" stroke="none" 
	d="
M797.446289,1014.322144 
	C797.706848,1016.416992 797.461731,1018.716736 797.460388,1021.016541 
	C797.441162,1055.004028 797.454224,1088.991577 797.503052,1123.443970 
	C797.030396,1122.272095 796.068420,1120.636719 796.064026,1118.998657 
	C795.975586,1085.733154 795.982483,1052.467407 796.040955,1019.201843 
	C796.043701,1017.643005 796.701355,1016.085327 797.446289,1014.322144 
z"/>
<path fill="#DE0B14" opacity="1.000000" stroke="none" 
	d="
M966.295044,760.893555 
	C966.074036,760.375183 966.198730,759.728333 966.590576,758.850220 
	C966.785461,759.334351 966.713074,760.049744 966.295044,760.893555 
z"/>
<path fill="#DE0B14" opacity="1.000000" stroke="none" 
	d="
M312.108337,759.877686 
	C312.400116,759.843079 312.667572,760.144104 312.972382,760.745361 
	C312.701172,760.768188 312.392609,760.490784 312.108337,759.877686 
z"/>
<path fill="#032F89" opacity="1.000000" stroke="none" 
	d="
M783.796021,740.076843 
	C784.010681,740.340515 783.926025,740.691589 783.558594,741.190247 
	C783.349365,740.946655 783.423035,740.555420 783.796021,740.076843 
z"/>
<path fill="#042E88" opacity="1.000000" stroke="none" 
	d="
M568.829834,1066.327393 
	C572.156067,1047.592773 583.860779,1037.927002 600.117981,1041.161011 
	C605.149353,1042.161865 610.451172,1045.171387 614.172485,1048.768188 
	C626.086731,1060.283569 624.556519,1083.002441 611.703125,1092.819824 
	C603.091614,1099.397217 593.463440,1100.068726 583.860840,1095.794556 
	C574.375671,1091.572754 570.052429,1083.268677 568.866028,1073.242554 
	C568.614563,1071.117310 568.826538,1068.937378 568.829834,1066.327393 
z"/>
<path fill="#042E88" opacity="1.000000" stroke="none" 
	d="
M743.143921,1085.670410 
	C741.785706,1102.380615 718.986023,1107.144409 709.018738,1100.971924 
	C701.814087,1096.510132 701.901550,1086.678955 709.414429,1082.143555 
	C712.150269,1080.491943 715.550537,1079.294312 718.713928,1079.124756 
	C726.618958,1078.701050 734.561890,1078.984985 743.153503,1078.984985 
	C743.153503,1081.383789 743.153503,1083.305542 743.143921,1085.670410 
z"/>
<path fill="#0C3189" opacity="1.000000" stroke="none" 
	d="
M1024.956787,1037.486450 
	C1037.766602,1038.595703 1044.303955,1044.611328 1046.755615,1057.524658 
	C1031.808594,1057.524658 1016.940369,1057.524658 1002.061707,1057.524658 
	C1002.606506,1046.251831 1011.329895,1038.533813 1024.956787,1037.486450 
z"/>
</svg>
